<?xml version="1.0" encoding="UTF-8" standalone="no"?>
<!DOCTYPE svg PUBLIC "-//W3C//DTD SVG 1.1//EN"
 "http://www.w3.org/Graphics/SVG/1.1/DTD/svg11.dtd">
<!-- Generated by graphviz version 2.40.1 (20161225.0304)
 -->
<!-- Title: models_diagram Pages: 1 -->
<svg width="920pt" height="302pt"
 viewBox="0.00 0.00 919.55 302.00" xmlns="http://www.w3.org/2000/svg" xmlns:xlink="http://www.w3.org/1999/xlink">
<g id="graph0" class="graph" transform="scale(1 1) rotate(0) translate(4 298)">
<title>models_diagram</title>
<polygon fill="transparent" stroke="transparent" points="-4,4 -4,-298 915.55,-298 915.55,4 -4,4"/>
<!-- _diagram_info -->
<g id="node1" class="node">
<title>_diagram_info</title>
<text text-anchor="start" x="8" y="-265.6" font-family="Times,serif" font-size="13.00" fill="#000000">Models diagram</text>
<text text-anchor="start" x="8" y="-252.6" font-family="Times,serif" font-size="13.00" fill="#000000">Date: Jul 19 2017 &#45; 20:21</text>
<text text-anchor="start" x="8" y="-239.6" font-family="Times,serif" font-size="13.00" fill="#000000">Migration version: 20170719234530</text>
<text text-anchor="start" x="8" y="-226.6" font-family="Times,serif" font-size="13.00" fill="#000000">Generated by RailRoady 1.5.3</text>
<text text-anchor="start" x="8" y="-213.6" font-family="Times,serif" font-size="13.00" fill="#000000">http://railroady.prestonlee.com</text>
</g>
<!-- ApplicationRecord -->
<g id="node2" class="node">
<title>ApplicationRecord</title>
<ellipse fill="none" stroke="#000000" cx="302.6877" cy="-243.5" rx="77.2916" ry="18"/>
<text text-anchor="middle" x="302.6877" y="-239.3" font-family="Times,serif" font-size="14.00" fill="#000000">ApplicationRecord</text>
</g>
<!-- Category -->
<g id="node3" class="node">
<title>Category</title>
<path fill="none" stroke="#000000" d="M409.8254,-200.5C409.8254,-200.5 633.55,-200.5 633.55,-200.5 639.55,-200.5 645.55,-206.5 645.55,-212.5 645.55,-212.5 645.55,-274.5 645.55,-274.5 645.55,-280.5 639.55,-286.5 633.55,-286.5 633.55,-286.5 409.8254,-286.5 409.8254,-286.5 403.8254,-286.5 397.8254,-280.5 397.8254,-274.5 397.8254,-274.5 397.8254,-212.5 397.8254,-212.5 397.8254,-206.5 403.8254,-200.5 409.8254,-200.5"/>
<text text-anchor="middle" x="521.6877" y="-271.3" font-family="Times,serif" font-size="14.00" fill="#000000">Category</text>
<polyline fill="none" stroke="#000000" points="397.8254,-264.5 645.55,-264.5 "/>
<text text-anchor="start" x="405.8254" y="-249.3" font-family="Times,serif" font-size="14.00" fill="#000000">id :integer</text>
<text text-anchor="start" x="405.8254" y="-235.3" font-family="Times,serif" font-size="14.00" fill="#000000">name :character varying</text>
<text text-anchor="start" x="405.8254" y="-221.3" font-family="Times,serif" font-size="14.00" fill="#000000">created_at :timestamp without time zone</text>
<text text-anchor="start" x="405.8254" y="-207.3" font-family="Times,serif" font-size="14.00" fill="#000000">updated_at :timestamp without time zone</text>
</g>
<!-- Item -->
<g id="node4" class="node">
<title>Item</title>
<path fill="none" stroke="#000000" d="M542.8254,-.5C542.8254,-.5 766.55,-.5 766.55,-.5 772.55,-.5 778.55,-6.5 778.55,-12.5 778.55,-12.5 778.55,-144.5 778.55,-144.5 778.55,-150.5 772.55,-156.5 766.55,-156.5 766.55,-156.5 542.8254,-156.5 542.8254,-156.5 536.8254,-156.5 530.8254,-150.5 530.8254,-144.5 530.8254,-144.5 530.8254,-12.5 530.8254,-12.5 530.8254,-6.5 536.8254,-.5 542.8254,-.5"/>
<text text-anchor="middle" x="654.6877" y="-141.3" font-family="Times,serif" font-size="14.00" fill="#000000">Item</text>
<polyline fill="none" stroke="#000000" points="530.8254,-134.5 778.55,-134.5 "/>
<text text-anchor="start" x="538.8254" y="-119.3" font-family="Times,serif" font-size="14.00" fill="#000000">user_id :integer</text>
<text text-anchor="start" x="538.8254" y="-105.3" font-family="Times,serif" font-size="14.00" fill="#000000">serialnum :integer</text>
<text text-anchor="start" x="538.8254" y="-91.3" font-family="Times,serif" font-size="14.00" fill="#000000">name :character varying</text>
<text text-anchor="start" x="538.8254" y="-77.3" font-family="Times,serif" font-size="14.00" fill="#000000">size :integer</text>
<text text-anchor="start" x="538.8254" y="-63.3" font-family="Times,serif" font-size="14.00" fill="#000000">desc :text</text>
<text text-anchor="start" x="538.8254" y="-49.3" font-family="Times,serif" font-size="14.00" fill="#000000">category_id :integer</text>
<text text-anchor="start" x="538.8254" y="-35.3" font-family="Times,serif" font-size="14.00" fill="#000000">created_at :timestamp without time zone</text>
<text text-anchor="start" x="538.8254" y="-21.3" font-family="Times,serif" font-size="14.00" fill="#000000">updated_at :timestamp without time zone</text>
<text text-anchor="start" x="538.8254" y="-7.3" font-family="Times,serif" font-size="14.00" fill="#000000">id :integer</text>
</g>
<!-- Category&#45;&gt;Item -->
<g id="edge1" class="edge">
<title>Category&#45;&gt;Item</title>
<path fill="none" stroke="#7302c2" d="M561.782,-193.759C569.2292,-184.5201 577.2038,-174.6267 585.236,-164.662"/>
<ellipse fill="none" stroke="#7302c2" cx="559.1422" cy="-197.0339" rx="4" ry="4"/>
<polygon fill="#7302c2" stroke="#7302c2" points="585.4053,-164.4519 595.1845,-159.4904 588.5431,-160.5591 591.681,-156.6663 591.681,-156.6663 591.681,-156.6663 588.5431,-160.5591 588.1774,-153.8422 585.4053,-164.4519 585.4053,-164.4519"/>
</g>
<!-- User -->
<g id="node5" class="node">
<title>User</title>
<path fill="none" stroke="#000000" d="M675.8254,-193.5C675.8254,-193.5 899.55,-193.5 899.55,-193.5 905.55,-193.5 911.55,-199.5 911.55,-205.5 911.55,-205.5 911.55,-281.5 911.55,-281.5 911.55,-287.5 905.55,-293.5 899.55,-293.5 899.55,-293.5 675.8254,-293.5 675.8254,-293.5 669.8254,-293.5 663.8254,-287.5 663.8254,-281.5 663.8254,-281.5 663.8254,-205.5 663.8254,-205.5 663.8254,-199.5 669.8254,-193.5 675.8254,-193.5"/>
<text text-anchor="middle" x="787.6877" y="-278.3" font-family="Times,serif" font-size="14.00" fill="#000000">User</text>
<polyline fill="none" stroke="#000000" points="663.8254,-271.5 911.55,-271.5 "/>
<text text-anchor="start" x="671.8254" y="-256.3" font-family="Times,serif" font-size="14.00" fill="#000000">id :integer</text>
<text text-anchor="start" x="671.8254" y="-242.3" font-family="Times,serif" font-size="14.00" fill="#000000">name :character varying</text>
<text text-anchor="start" x="671.8254" y="-228.3" font-family="Times,serif" font-size="14.00" fill="#000000">email :character varying</text>
<text text-anchor="start" x="671.8254" y="-214.3" font-family="Times,serif" font-size="14.00" fill="#000000">created_at :timestamp without time zone</text>
<text text-anchor="start" x="671.8254" y="-200.3" font-family="Times,serif" font-size="14.00" fill="#000000">updated_at :timestamp without time zone</text>
</g>
<!-- User&#45;&gt;Item -->
<g id="edge2" class="edge">
<title>User&#45;&gt;Item</title>
<path fill="none" stroke="#fba5bd" d="M741.9642,-186.7753C736.1936,-179.6163 730.1909,-172.1694 724.1556,-164.682"/>
<ellipse fill="none" stroke="#fba5bd" cx="744.5504" cy="-189.9837" rx="4" ry="4"/>
<polygon fill="#fba5bd" stroke="#fba5bd" points="723.879,-164.3388 721.1068,-153.7291 720.7412,-160.446 717.6033,-156.5531 717.6033,-156.5531 717.6033,-156.5531 720.7412,-160.446 714.0998,-159.3772 723.879,-164.3388 723.879,-164.3388"/>
</g>
</g>
</svg>
